<svg xmlns="http://www.w3.org/2000/svg" viewBox="0 0 720 420" width="720" height="420" font-family="ui-sans-serif,system-ui,sans-serif" font-size="13">
<text x="360.0" y="22" text-anchor="middle" fill="#8b949e" font-size="15" font-weight="600">Stills, photo (256x384): encode time by tier, default -q</text>
<line x1="86" y1="368.0" x2="704" y2="368.0" stroke="#8b949e" stroke-opacity="0.25"/>
<text x="78" y="372.0" text-anchor="end" fill="#8b949e" font-size="12">0s</text>
<line x1="86" y1="321.7" x2="704" y2="321.7" stroke="#8b949e" stroke-opacity="0.25"/>
<text x="78" y="325.7142857142857" text-anchor="end" fill="#8b949e" font-size="12">0.1s</text>
<line x1="86" y1="275.4" x2="704" y2="275.4" stroke="#8b949e" stroke-opacity="0.25"/>
<text x="78" y="279.4285714285714" text-anchor="end" fill="#8b949e" font-size="12">0.2s</text>
<line x1="86" y1="229.1" x2="704" y2="229.1" stroke="#8b949e" stroke-opacity="0.25"/>
<text x="78" y="233.14285714285714" text-anchor="end" fill="#8b949e" font-size="12">0.3s</text>
<line x1="86" y1="182.9" x2="704" y2="182.9" stroke="#8b949e" stroke-opacity="0.25"/>
<text x="78" y="186.85714285714283" text-anchor="end" fill="#8b949e" font-size="12">0.4s</text>
<line x1="86" y1="136.6" x2="704" y2="136.6" stroke="#8b949e" stroke-opacity="0.25"/>
<text x="78" y="140.57142857142856" text-anchor="end" fill="#8b949e" font-size="12">0.5s</text>
<line x1="86" y1="90.3" x2="704" y2="90.3" stroke="#8b949e" stroke-opacity="0.25"/>
<text x="78" y="94.28571428571426" text-anchor="end" fill="#8b949e" font-size="12">0.6s</text>
<line x1="86" y1="44.0" x2="704" y2="44.0" stroke="#8b949e" stroke-opacity="0.25"/>
<text x="78" y="48.0" text-anchor="end" fill="#8b949e" font-size="12">0.7s</text>
<text x="240.5" y="388" text-anchor="middle" fill="#8b949e" font-size="13">WebP</text>
<rect x="185.5" y="356.0" width="34" height="12.0" fill="#e8793a" rx="2"/>
<text x="202.5" y="350.9657142857143" text-anchor="middle" fill="#8b949e" font-size="11">0.026s</text>
<rect x="223.5" y="262.9" width="34" height="105.1" fill="#2f81f7" rx="2"/>
<text x="240.5" y="257.93142857142857" text-anchor="middle" fill="#8b949e" font-size="11">0.23s</text>
<rect x="261.5" y="262.9" width="34" height="105.1" fill="#3fb950" rx="2"/>
<text x="278.5" y="257.93142857142857" text-anchor="middle" fill="#8b949e" font-size="11">0.23s</text>
<text x="549.5" y="388" text-anchor="middle" fill="#8b949e" font-size="13">AVIF (--next)</text>
<rect x="494.5" y="341.2" width="34" height="26.8" fill="#e8793a" rx="2"/>
<text x="511.5" y="336.1542857142857" text-anchor="middle" fill="#8b949e" font-size="11">0.058s</text>
<rect x="532.5" y="262.9" width="34" height="105.1" fill="#2f81f7" rx="2"/>
<text x="549.5" y="257.93142857142857" text-anchor="middle" fill="#8b949e" font-size="11">0.23s</text>
<rect x="570.5" y="100.9" width="34" height="267.1" fill="#3fb950" rx="2"/>
<text x="587.5" y="95.93142857142857" text-anchor="middle" fill="#8b949e" font-size="11">0.58s</text>
<rect x="96" y="32" width="12" height="12" fill="#e8793a" rx="2"/>
<text x="114" y="42" text-anchor="start" fill="#8b949e" font-size="12">--fast</text>
<rect x="206" y="32" width="12" height="12" fill="#2f81f7" rx="2"/>
<text x="224" y="42" text-anchor="start" fill="#8b949e" font-size="12">default</text>
<rect x="316" y="32" width="12" height="12" fill="#3fb950" rx="2"/>
<text x="334" y="42" text-anchor="start" fill="#8b949e" font-size="12">--best</text>
</svg>