<svg xmlns="http://www.w3.org/2000/svg" viewBox="0 0 720 420" width="720" height="420" font-family="ui-sans-serif,system-ui,sans-serif" font-size="13">
<text x="360.0" y="22" text-anchor="middle" fill="#8b949e" font-size="15" font-weight="600">Video, live action (vid5): size at the same look, default tier</text>
<line x1="86" y1="368.0" x2="704" y2="368.0" stroke="#8b949e" stroke-opacity="0.25"/>
<text x="78" y="372.0" text-anchor="end" fill="#8b949e" font-size="12">16K</text>
<line x1="86" y1="327.5" x2="704" y2="327.5" stroke="#8b949e" stroke-opacity="0.25"/>
<text x="78" y="331.5" text-anchor="end" fill="#8b949e" font-size="12">32K</text>
<line x1="86" y1="287.0" x2="704" y2="287.0" stroke="#8b949e" stroke-opacity="0.25"/>
<text x="78" y="291.0" text-anchor="end" fill="#8b949e" font-size="12">64K</text>
<line x1="86" y1="246.5" x2="704" y2="246.5" stroke="#8b949e" stroke-opacity="0.25"/>
<text x="78" y="250.5" text-anchor="end" fill="#8b949e" font-size="12">128K</text>
<line x1="86" y1="206.0" x2="704" y2="206.0" stroke="#8b949e" stroke-opacity="0.25"/>
<text x="78" y="210.0" text-anchor="end" fill="#8b949e" font-size="12">256K</text>
<line x1="86" y1="165.5" x2="704" y2="165.5" stroke="#8b949e" stroke-opacity="0.25"/>
<text x="78" y="169.5" text-anchor="end" fill="#8b949e" font-size="12">512K</text>
<line x1="86" y1="125.0" x2="704" y2="125.0" stroke="#8b949e" stroke-opacity="0.25"/>
<text x="78" y="129.0" text-anchor="end" fill="#8b949e" font-size="12">1M</text>
<line x1="86" y1="84.5" x2="704" y2="84.5" stroke="#8b949e" stroke-opacity="0.25"/>
<text x="78" y="88.5" text-anchor="end" fill="#8b949e" font-size="12">2M</text>
<line x1="86" y1="44.0" x2="704" y2="44.0" stroke="#8b949e" stroke-opacity="0.25"/>
<text x="78" y="48.0" text-anchor="end" fill="#8b949e" font-size="12">4M</text>
<text x="86.0" y="388" text-anchor="middle" fill="#8b949e" font-size="12">1</text>
<text x="240.5" y="388" text-anchor="middle" fill="#8b949e" font-size="12">3</text>
<text x="379.55" y="388" text-anchor="middle" fill="#8b949e" font-size="12">4.8</text>
<text x="549.5" y="388" text-anchor="middle" fill="#8b949e" font-size="12">7</text>
<text x="704.0" y="388" text-anchor="middle" fill="#8b949e" font-size="12">9</text>
<text x="395.0" y="408" text-anchor="middle" fill="#8b949e" font-size="12">-q  (equal visual quality per point)</text>
<polyline points="86.0,302.9 240.5,226.4 379.6,161.4 549.5,85.0 704.0,63.9" fill="none" stroke="#8b949e" stroke-width="2.5"/>
<circle cx="86.0" cy="302.9" r="3.5" fill="#8b949e"/>
<circle cx="240.5" cy="226.4" r="3.5" fill="#8b949e"/>
<circle cx="379.6" cy="161.4" r="3.5" fill="#8b949e"/>
<circle cx="549.5" cy="85.0" r="3.5" fill="#8b949e"/>
<circle cx="704.0" cy="63.9" r="3.5" fill="#8b949e"/>
<rect x="96" y="32" width="12" height="12" fill="#8b949e" rx="2"/>
<text x="114" y="42" text-anchor="start" fill="#8b949e" font-size="12">VP9 (default)</text>
<polyline points="86.0,331.9 240.5,264.8 379.6,213.2 549.5,158.4 704.0,80.8" fill="none" stroke="#2f81f7" stroke-width="2.5"/>
<circle cx="86.0" cy="331.9" r="3.5" fill="#2f81f7"/>
<circle cx="240.5" cy="264.8" r="3.5" fill="#2f81f7"/>
<circle cx="379.6" cy="213.2" r="3.5" fill="#2f81f7"/>
<circle cx="549.5" cy="158.4" r="3.5" fill="#2f81f7"/>
<circle cx="704.0" cy="80.8" r="3.5" fill="#2f81f7"/>
<rect x="225.60000000000002" y="32" width="12" height="12" fill="#2f81f7" rx="2"/>
<text x="243.60000000000002" y="42" text-anchor="start" fill="#8b949e" font-size="12">AV1 (--next)</text>
<polyline points="86.0,265.5 240.5,223.1 379.6,203.7 549.5,168.5 704.0,135.7" fill="none" stroke="#e8793a" stroke-width="2.5"/>
<circle cx="86.0" cy="265.5" r="3.5" fill="#e8793a"/>
<circle cx="240.5" cy="223.1" r="3.5" fill="#e8793a"/>
<circle cx="379.6" cy="203.7" r="3.5" fill="#e8793a"/>
<circle cx="549.5" cy="168.5" r="3.5" fill="#e8793a"/>
<circle cx="704.0" cy="135.7" r="3.5" fill="#e8793a"/>
<rect x="348.0" y="32" width="12" height="12" fill="#e8793a" rx="2"/>
<text x="366.0" y="42" text-anchor="start" fill="#8b949e" font-size="12">H.264 (--legacy)</text>
</svg>