<svg xmlns="http://www.w3.org/2000/svg" viewBox="0 0 720 420" width="720" height="420" font-family="ui-sans-serif,system-ui,sans-serif" font-size="13">
<text x="360.0" y="22" text-anchor="middle" fill="#8b949e" font-size="15" font-weight="600">Stills, photos (Kodak pair mean): size by effort tier, default -q (KB)</text>
<line x1="86" y1="368.0" x2="704" y2="368.0" stroke="#8b949e" stroke-opacity="0.25"/>
<text x="78" y="372.0" text-anchor="end" fill="#8b949e" font-size="12">0K</text>
<line x1="86" y1="327.5" x2="704" y2="327.5" stroke="#8b949e" stroke-opacity="0.25"/>
<text x="78" y="331.5" text-anchor="end" fill="#8b949e" font-size="12">2K</text>
<line x1="86" y1="287.0" x2="704" y2="287.0" stroke="#8b949e" stroke-opacity="0.25"/>
<text x="78" y="291.0" text-anchor="end" fill="#8b949e" font-size="12">4K</text>
<line x1="86" y1="246.5" x2="704" y2="246.5" stroke="#8b949e" stroke-opacity="0.25"/>
<text x="78" y="250.5" text-anchor="end" fill="#8b949e" font-size="12">6K</text>
<line x1="86" y1="206.0" x2="704" y2="206.0" stroke="#8b949e" stroke-opacity="0.25"/>
<text x="78" y="210.0" text-anchor="end" fill="#8b949e" font-size="12">8K</text>
<line x1="86" y1="165.5" x2="704" y2="165.5" stroke="#8b949e" stroke-opacity="0.25"/>
<text x="78" y="169.5" text-anchor="end" fill="#8b949e" font-size="12">10K</text>
<line x1="86" y1="125.0" x2="704" y2="125.0" stroke="#8b949e" stroke-opacity="0.25"/>
<text x="78" y="129.0" text-anchor="end" fill="#8b949e" font-size="12">12K</text>
<line x1="86" y1="84.5" x2="704" y2="84.5" stroke="#8b949e" stroke-opacity="0.25"/>
<text x="78" y="88.5" text-anchor="end" fill="#8b949e" font-size="12">14K</text>
<line x1="86" y1="44.0" x2="704" y2="44.0" stroke="#8b949e" stroke-opacity="0.25"/>
<text x="78" y="48.0" text-anchor="end" fill="#8b949e" font-size="12">16K</text>
<text x="240.5" y="388" text-anchor="middle" fill="#8b949e" font-size="13">WebP</text>
<rect x="185.5" y="114.6" width="34" height="253.4" fill="#2f81f7" rx="2"/>
<text x="202.5" y="109.578369140625" text-anchor="middle" fill="#8b949e" font-size="11">13</text>
<rect x="223.5" y="111.4" width="34" height="256.6" fill="#e8793a" rx="2"/>
<text x="240.5" y="106.39453125" text-anchor="middle" fill="#8b949e" font-size="11">13</text>
<rect x="261.5" y="114.6" width="34" height="253.4" fill="#3fb950" rx="2"/>
<text x="278.5" y="109.578369140625" text-anchor="middle" fill="#8b949e" font-size="11">13</text>
<text x="549.5" y="388" text-anchor="middle" fill="#8b949e" font-size="13">AVIF (--next)</text>
<rect x="494.5" y="216.2" width="34" height="151.8" fill="#2f81f7" rx="2"/>
<text x="511.5" y="211.1942138671875" text-anchor="middle" fill="#8b949e" font-size="11">7</text>
<rect x="532.5" y="174.8" width="34" height="193.2" fill="#e8793a" rx="2"/>
<text x="549.5" y="169.7647705078125" text-anchor="middle" fill="#8b949e" font-size="11">10</text>
<rect x="570.5" y="217.1" width="34" height="150.9" fill="#3fb950" rx="2"/>
<text x="587.5" y="212.11376953125" text-anchor="middle" fill="#8b949e" font-size="11">7</text>
<rect x="96" y="32" width="12" height="12" fill="#2f81f7" rx="2"/>
<text x="114" y="42" text-anchor="start" fill="#8b949e" font-size="12">default</text>
<rect x="206" y="32" width="12" height="12" fill="#e8793a" rx="2"/>
<text x="224" y="42" text-anchor="start" fill="#8b949e" font-size="12">--fast</text>
<rect x="316" y="32" width="12" height="12" fill="#3fb950" rx="2"/>
<text x="334" y="42" text-anchor="start" fill="#8b949e" font-size="12">--best</text>
</svg>