<svg xmlns="http://www.w3.org/2000/svg" viewBox="0 0 720 420" width="720" height="420" font-family="ui-sans-serif,system-ui,sans-serif" font-size="13">
<text x="360.0" y="22" text-anchor="middle" fill="#8b949e" font-size="15" font-weight="600">Stills, photos (Kodak pair mean): size at the same look, default tier</text>
<line x1="86" y1="368.0" x2="704" y2="368.0" stroke="#8b949e" stroke-opacity="0.25"/>
<text x="78" y="371.99999999460005" text-anchor="end" fill="#8b949e" font-size="12">0K</text>
<line x1="86" y1="314.0" x2="704" y2="314.0" stroke="#8b949e" stroke-opacity="0.25"/>
<text x="78" y="318.0" text-anchor="end" fill="#8b949e" font-size="12">10K</text>
<line x1="86" y1="260.0" x2="704" y2="260.0" stroke="#8b949e" stroke-opacity="0.25"/>
<text x="78" y="264.0" text-anchor="end" fill="#8b949e" font-size="12">20K</text>
<line x1="86" y1="206.0" x2="704" y2="206.0" stroke="#8b949e" stroke-opacity="0.25"/>
<text x="78" y="210.0" text-anchor="end" fill="#8b949e" font-size="12">30K</text>
<line x1="86" y1="152.0" x2="704" y2="152.0" stroke="#8b949e" stroke-opacity="0.25"/>
<text x="78" y="156.0" text-anchor="end" fill="#8b949e" font-size="12">40K</text>
<line x1="86" y1="98.0" x2="704" y2="98.0" stroke="#8b949e" stroke-opacity="0.25"/>
<text x="78" y="102.0" text-anchor="end" fill="#8b949e" font-size="12">50K</text>
<line x1="86" y1="44.0" x2="704" y2="44.0" stroke="#8b949e" stroke-opacity="0.25"/>
<text x="78" y="48.0" text-anchor="end" fill="#8b949e" font-size="12">60K</text>
<text x="86.0" y="388" text-anchor="middle" fill="#8b949e" font-size="12">8</text>
<text x="240.5" y="388" text-anchor="middle" fill="#8b949e" font-size="12">8.5</text>
<text x="395.0" y="388" text-anchor="middle" fill="#8b949e" font-size="12">9</text>
<text x="549.5" y="388" text-anchor="middle" fill="#8b949e" font-size="12">9.5</text>
<text x="704.0" y="388" text-anchor="middle" fill="#8b949e" font-size="12">10</text>
<text x="395.0" y="408" text-anchor="middle" fill="#8b949e" font-size="12">-q  (equal visual quality per point)</text>
<polyline points="86.0,300.4 240.5,282.7 395.0,255.3 549.5,203.4 704.0,126.7" fill="none" stroke="#8b949e" stroke-width="2.5"/>
<circle cx="86.0" cy="300.4" r="3.5" fill="#8b949e"/>
<circle cx="240.5" cy="282.7" r="3.5" fill="#8b949e"/>
<circle cx="395.0" cy="255.3" r="3.5" fill="#8b949e"/>
<circle cx="549.5" cy="203.4" r="3.5" fill="#8b949e"/>
<circle cx="704.0" cy="126.7" r="3.5" fill="#8b949e"/>
<rect x="96" y="32" width="12" height="12" fill="#8b949e" rx="2"/>
<text x="114" y="42" text-anchor="start" fill="#8b949e" font-size="12">WebP (default)</text>
<polyline points="86.0,327.5 240.5,312.1 395.0,299.0 549.5,280.2 704.0,232.0" fill="none" stroke="#2f81f7" stroke-width="2.5"/>
<circle cx="86.0" cy="327.5" r="3.5" fill="#2f81f7"/>
<circle cx="240.5" cy="312.1" r="3.5" fill="#2f81f7"/>
<circle cx="395.0" cy="299.0" r="3.5" fill="#2f81f7"/>
<circle cx="549.5" cy="280.2" r="3.5" fill="#2f81f7"/>
<circle cx="704.0" cy="232.0" r="3.5" fill="#2f81f7"/>
<rect x="232.8" y="32" width="12" height="12" fill="#2f81f7" rx="2"/>
<text x="250.8" y="42" text-anchor="start" fill="#8b949e" font-size="12">AVIF (--next)</text>
</svg>