<svg xmlns="http://www.w3.org/2000/svg" viewBox="0 0 720 420" width="720" height="420" font-family="ui-sans-serif,system-ui,sans-serif" font-size="13">
<text x="360.0" y="22" text-anchor="middle" fill="#8b949e" font-size="15" font-weight="600">Video, live action (vid5): size by effort tier, default -q (KB)</text>
<line x1="86" y1="368.0" x2="704" y2="368.0" stroke="#8b949e" stroke-opacity="0.25"/>
<text x="78" y="372.0" text-anchor="end" fill="#8b949e" font-size="12">0K</text>
<line x1="86" y1="303.2" x2="704" y2="303.2" stroke="#8b949e" stroke-opacity="0.25"/>
<text x="78" y="307.2" text-anchor="end" fill="#8b949e" font-size="12">100K</text>
<line x1="86" y1="238.4" x2="704" y2="238.4" stroke="#8b949e" stroke-opacity="0.25"/>
<text x="78" y="242.4" text-anchor="end" fill="#8b949e" font-size="12">200K</text>
<line x1="86" y1="173.6" x2="704" y2="173.6" stroke="#8b949e" stroke-opacity="0.25"/>
<text x="78" y="177.6" text-anchor="end" fill="#8b949e" font-size="12">300K</text>
<line x1="86" y1="108.8" x2="704" y2="108.8" stroke="#8b949e" stroke-opacity="0.25"/>
<text x="78" y="112.79999999999998" text-anchor="end" fill="#8b949e" font-size="12">400K</text>
<line x1="86" y1="44.0" x2="704" y2="44.0" stroke="#8b949e" stroke-opacity="0.25"/>
<text x="78" y="48.0" text-anchor="end" fill="#8b949e" font-size="12">500K</text>
<text x="189.0" y="388" text-anchor="middle" fill="#8b949e" font-size="13">VP9</text>
<rect x="134.0" y="128.7" width="34" height="239.3" fill="#e8793a" rx="2"/>
<text x="151.0" y="123.74814843749999" text-anchor="middle" fill="#8b949e" font-size="11">369</text>
<rect x="172.0" y="113.7" width="34" height="254.3" fill="#2f81f7" rx="2"/>
<text x="189.0" y="108.69543750000001" text-anchor="middle" fill="#8b949e" font-size="11">392</text>
<rect x="210.0" y="131.6" width="34" height="236.4" fill="#3fb950" rx="2"/>
<text x="227.0" y="126.57049218750001" text-anchor="middle" fill="#8b949e" font-size="11">365</text>
<text x="395.0" y="388" text-anchor="middle" fill="#8b949e" font-size="13">AV1 (--next)</text>
<rect x="340.0" y="270.1" width="34" height="97.9" fill="#e8793a" rx="2"/>
<text x="357.0" y="265.08492187499996" text-anchor="middle" fill="#8b949e" font-size="11">151</text>
<rect x="378.0" y="245.0" width="34" height="123.0" fill="#2f81f7" rx="2"/>
<text x="395.0" y="239.9692265625" text-anchor="middle" fill="#8b949e" font-size="11">190</text>
<rect x="416.0" y="245.0" width="34" height="123.0" fill="#3fb950" rx="2"/>
<text x="433.0" y="239.9692265625" text-anchor="middle" fill="#8b949e" font-size="11">190</text>
<text x="601.0" y="388" text-anchor="middle" fill="#8b949e" font-size="13">H.264 (--legacy)</text>
<rect x="546.0" y="199.9" width="34" height="168.1" fill="#e8793a" rx="2"/>
<text x="563.0" y="194.86678125" text-anchor="middle" fill="#8b949e" font-size="11">259</text>
<rect x="584.0" y="213.6" width="34" height="154.4" fill="#2f81f7" rx="2"/>
<text x="601.0" y="208.57603125" text-anchor="middle" fill="#8b949e" font-size="11">238</text>
<rect x="622.0" y="213.6" width="34" height="154.4" fill="#3fb950" rx="2"/>
<text x="639.0" y="208.57603125" text-anchor="middle" fill="#8b949e" font-size="11">238</text>
<rect x="96" y="32" width="12" height="12" fill="#e8793a" rx="2"/>
<text x="114" y="42" text-anchor="start" fill="#8b949e" font-size="12">--fast</text>
<rect x="206" y="32" width="12" height="12" fill="#2f81f7" rx="2"/>
<text x="224" y="42" text-anchor="start" fill="#8b949e" font-size="12">default</text>
<rect x="316" y="32" width="12" height="12" fill="#3fb950" rx="2"/>
<text x="334" y="42" text-anchor="start" fill="#8b949e" font-size="12">--best</text>
</svg>