<svg xmlns="http://www.w3.org/2000/svg" viewBox="0 0 720 420" width="720" height="420" font-family="ui-sans-serif,system-ui,sans-serif" font-size="13">
<text x="360.0" y="22" text-anchor="middle" fill="#8b949e" font-size="15" font-weight="600">Animated GIF, live action (vid5.gif): size at the same look, default tier</text>
<line x1="86" y1="368.0" x2="704" y2="368.0" stroke="#8b949e" stroke-opacity="0.25"/>
<text x="78" y="372.0" text-anchor="end" fill="#8b949e" font-size="12">8K</text>
<line x1="86" y1="314.0" x2="704" y2="314.0" stroke="#8b949e" stroke-opacity="0.25"/>
<text x="78" y="318.0" text-anchor="end" fill="#8b949e" font-size="12">16K</text>
<line x1="86" y1="260.0" x2="704" y2="260.0" stroke="#8b949e" stroke-opacity="0.25"/>
<text x="78" y="264.0" text-anchor="end" fill="#8b949e" font-size="12">32K</text>
<line x1="86" y1="206.0" x2="704" y2="206.0" stroke="#8b949e" stroke-opacity="0.25"/>
<text x="78" y="210.0" text-anchor="end" fill="#8b949e" font-size="12">64K</text>
<line x1="86" y1="152.0" x2="704" y2="152.0" stroke="#8b949e" stroke-opacity="0.25"/>
<text x="78" y="156.0" text-anchor="end" fill="#8b949e" font-size="12">128K</text>
<line x1="86" y1="98.0" x2="704" y2="98.0" stroke="#8b949e" stroke-opacity="0.25"/>
<text x="78" y="102.0" text-anchor="end" fill="#8b949e" font-size="12">256K</text>
<line x1="86" y1="44.0" x2="704" y2="44.0" stroke="#8b949e" stroke-opacity="0.25"/>
<text x="78" y="48.0" text-anchor="end" fill="#8b949e" font-size="12">512K</text>
<text x="86.0" y="388" text-anchor="middle" fill="#8b949e" font-size="12">5</text>
<text x="292.0" y="388" text-anchor="middle" fill="#8b949e" font-size="12">6.5</text>
<text x="498.0" y="388" text-anchor="middle" fill="#8b949e" font-size="12">8</text>
<text x="704.0" y="388" text-anchor="middle" fill="#8b949e" font-size="12">9.5</text>
<text x="395.0" y="408" text-anchor="middle" fill="#8b949e" font-size="12">-q  (equal visual quality per point)</text>
<polyline points="86.0,194.3 292.0,179.1 498.0,152.7 704.0,76.0" fill="none" stroke="#8b949e" stroke-width="2.5"/>
<circle cx="86.0" cy="194.3" r="3.5" fill="#8b949e"/>
<circle cx="292.0" cy="179.1" r="3.5" fill="#8b949e"/>
<circle cx="498.0" cy="152.7" r="3.5" fill="#8b949e"/>
<circle cx="704.0" cy="76.0" r="3.5" fill="#8b949e"/>
<rect x="96" y="32" width="12" height="12" fill="#8b949e" rx="2"/>
<text x="114" y="42" text-anchor="start" fill="#8b949e" font-size="12">animated WebP (default)</text>
<polyline points="86.0,365.9 292.0,337.9 498.0,308.5 704.0,239.7" fill="none" stroke="#2f81f7" stroke-width="2.5"/>
<circle cx="86.0" cy="365.9" r="3.5" fill="#2f81f7"/>
<circle cx="292.0" cy="337.9" r="3.5" fill="#2f81f7"/>
<circle cx="498.0" cy="308.5" r="3.5" fill="#2f81f7"/>
<circle cx="704.0" cy="239.7" r="3.5" fill="#2f81f7"/>
<rect x="297.6" y="32" width="12" height="12" fill="#2f81f7" rx="2"/>
<text x="315.6" y="42" text-anchor="start" fill="#8b949e" font-size="12">animated AVIF (--next)</text>
</svg>